<svg xmlns="http://www.w3.org/2000/svg" width="440" height="112" viewBox="0 0 440 112" role="img" aria-labelledby="title desc">
<title id="title">Suture</title><desc id="desc">Cross-platform audio app: CD import, ordered track export, chapters, and bundled FFmpeg.</desc>
<style>text{font-family:-apple-system,BlinkMacSystemFont,"Segoe UI",Helvetica,Arial,sans-serif}.wave{transform-box:fill-box;transform-origin:center;animation:wave 2.8s ease-in-out infinite}.trace{animation:trace 4s linear infinite}.frames{animation:frames 5s ease-in-out infinite}.dial{transform-origin:352px 56px;animation:dial 12s linear infinite}@keyframes wave{0%,100%{transform:scaleY(.55)}50%{transform:scaleY(1)}}@keyframes trace{to{stroke-dashoffset:-48}}@keyframes frames{0%,100%{transform:translateX(-2px)}50%{transform:translateX(2px)}}@keyframes dial{to{transform:rotate(360deg)}}@media(prefers-reduced-motion:reduce){*{animation:none!important}}</style>
<rect x=".5" y=".5" width="439" height="111" rx="10" fill="#0d1117" stroke="#30363d"/>
<text x="24" y="47" font-size="21" font-weight="600" fill="#e6edf3">Suture</text>
<text x="24" y="74" font-size="12" fill="#919aa5">Rust / egui / FFmpeg</text>
<path d="M413 20h8v8M412 29l9-9" fill="none" stroke="#919aa5" stroke-width="1.3" stroke-linecap="round" stroke-linejoin="round"/>
<rect class="wave" x="306" y="52" width="3" height="8" rx="1.5" fill="#9bc5b5" style="animation-delay:0s"/><rect class="wave" x="313" y="49" width="3" height="14" rx="1.5" fill="#9bc5b5" style="animation-delay:-0.13s"/><rect class="wave" x="320" y="42" width="3" height="28" rx="1.5" fill="#9bc5b5" style="animation-delay:-0.26s"/><rect class="wave" x="327" y="33" width="3" height="46" rx="1.5" fill="#9bc5b5" style="animation-delay:-0.39s"/><rect class="wave" x="334" y="41" width="3" height="30" rx="1.5" fill="#9bc5b5" style="animation-delay:-0.52s"/><rect class="wave" x="341" y="47" width="3" height="18" rx="1.5" fill="#9bc5b5" style="animation-delay:-0.65s"/><rect class="wave" x="348" y="36" width="3" height="40" rx="1.5" fill="#9bc5b5" style="animation-delay:-0.78s"/><rect class="wave" x="355" y="30" width="3" height="52" rx="1.5" fill="#9bc5b5" style="animation-delay:-0.91s"/><rect class="wave" x="362" y="39" width="3" height="34" rx="1.5" fill="#9bc5b5" style="animation-delay:-1.04s"/><rect class="wave" x="369" y="46" width="3" height="20" rx="1.5" fill="#9bc5b5" style="animation-delay:-1.17s"/><rect class="wave" x="376" y="42" width="3" height="28" rx="1.5" fill="#9bc5b5" style="animation-delay:-1.3s"/><rect class="wave" x="383" y="49" width="3" height="14" rx="1.5" fill="#9bc5b5" style="animation-delay:-1.4300000000000002s"/><rect class="wave" x="390" y="52" width="3" height="8" rx="1.5" fill="#9bc5b5" style="animation-delay:-1.56s"/>
</svg>
